<?xml version="1.0" encoding="UTF-8"?>
<svg xmlns="http://www.w3.org/2000/svg" xmlns:xlink="http://www.w3.org/1999/xlink" width="2127" height="2127" viewBox="0 0 2127 2127">
<path fill-rule="evenodd" fill="rgb(100%, 100%, 100%)" fill-opacity="1" d="M 0.792969 0.21875 L 2126.78125 0.21875 L 2126.78125 2126.207031 L 0.792969 2126.207031 L 0.792969 0.21875 "/>
<path fill-rule="evenodd" fill="rgb(0%, 0%, 0%)" fill-opacity="1" d="M 954.382812 334.609375 L 1197.019531 341.398438 L 1065.511719 1118.949219 L 1145.660156 365.671875 L 954.382812 334.609375 "/>
<path fill-rule="evenodd" fill="rgb(0%, 0%, 0%)" fill-opacity="1" d="M 961.816406 385.570312 L 1049.191406 978.808594 L 943.421875 525.058594 Z M 961.816406 385.570312 "/>
<path fill-rule="evenodd" fill="rgb(0%, 0%, 0%)" fill-opacity="1" d="M 1067.351562 491.058594 C 1077.519531 491.058594 1085.769531 499.300781 1085.769531 509.46875 C 1085.769531 519.640625 1077.519531 527.878906 1067.351562 527.878906 C 1057.179688 527.878906 1048.941406 519.640625 1048.941406 509.46875 C 1048.941406 499.300781 1057.179688 491.058594 1067.351562 491.058594 "/>
<path fill-rule="evenodd" fill="rgb(0%, 0%, 0%)" fill-opacity="1" d="M 1067.351562 639.410156 C 1077.519531 639.410156 1085.769531 647.648438 1085.769531 657.820312 C 1085.769531 667.988281 1077.519531 676.238281 1067.351562 676.238281 C 1057.179688 676.238281 1048.941406 667.988281 1048.941406 657.820312 C 1048.941406 647.648438 1057.179688 639.410156 1067.351562 639.410156 "/>
<path fill-rule="evenodd" fill="rgb(0%, 0%, 0%)" fill-opacity="1" d="M 1067.351562 787.769531 C 1077.519531 787.769531 1085.769531 796.011719 1085.769531 806.179688 C 1085.769531 816.351562 1077.519531 824.589844 1067.351562 824.589844 C 1057.179688 824.589844 1048.941406 816.351562 1048.941406 806.179688 C 1048.941406 796.011719 1057.179688 787.769531 1067.351562 787.769531 "/>
<path fill-rule="evenodd" fill="rgb(0%, 0%, 0%)" fill-opacity="1" d="M 1207.359375 350.710938 L 1307.238281 461.390625 L 1231.539062 462.300781 L 1267.558594 517.441406 L 1090.511719 1069.988281 L 1219.640625 520.769531 L 1194.730469 446.398438 L 1250.199219 424.339844 L 1207.359375 350.710938 "/>
<path fill-rule="evenodd" fill="rgb(0%, 0%, 0%)" fill-opacity="1" d="M 917.40625 350.710938 L 817.53125 461.390625 L 893.234375 462.300781 L 857.214844 517.441406 L 1034.261719 1069.988281 L 905.121094 520.769531 L 930.035156 446.398438 L 874.566406 424.339844 L 917.40625 350.710938 "/>
<path fill-rule="evenodd" fill="rgb(0%, 0%, 0%)" fill-opacity="1" d="M 805.414062 449.039062 L 740.007812 469.96875 L 782.492188 604.628906 L 726.976562 502.21875 C 725.804688 559.128906 722.347656 696.25 713.8125 857.441406 L 758.054688 1036.078125 L 710.941406 909.160156 C 697.46875 1140.828125 669.410156 1340.855469 627.25 1490.179688 L 751.855469 1491.734375 L 848.328125 961.789062 L 803.859375 811.558594 L 860.171875 964.328125 L 935.105469 1068.488281 L 857.488281 983.390625 L 776.230469 1525.773438 L 958.105469 1516.445312 L 1051.371094 1180.507812 Z M 957.574219 1320.121094 L 840.632812 1314.074219 L 840.988281 1318.34375 L 840.144531 1471.132812 L 852.046875 1325.347656 L 950.847656 1322.347656 L 950.164062 1390.039062 L 957.574219 1320.121094 "/>
<path fill-rule="evenodd" fill="rgb(0%, 0%, 0%)" fill-opacity="1" d="M 1322.160156 449.039062 L 1387.558594 469.96875 L 1345.078125 604.628906 L 1400.589844 502.21875 C 1401.761719 559.128906 1405.21875 696.25 1413.75 857.441406 L 1369.511719 1036.078125 L 1416.628906 909.160156 C 1430.101562 1140.828125 1450.011719 1340.855469 1492.179688 1490.179688 L 1360.699219 1485.855469 L 1279.238281 961.789062 L 1323.710938 811.558594 L 1267.398438 964.328125 L 1207.820312 1071.101562 L 1269.941406 982.390625 L 1351.339844 1525.773438 L 1169.460938 1516.445312 L 1076.199219 1180.507812 Z M 1177.378906 1320.121094 L 1294.320312 1314.074219 L 1293.96875 1318.34375 L 1294.808594 1471.132812 L 1282.910156 1325.347656 L 1184.109375 1322.347656 L 1184.789062 1390.039062 L 1177.378906 1320.121094 "/>
<path fill-rule="nonzero" fill="rgb(0%, 0%, 0%)" fill-opacity="1" d="M 490.992188 1673.859375 L 517.804688 1673.859375 L 517.804688 1617.410156 L 542.925781 1655.796875 L 543.488281 1655.796875 L 568.746094 1617.128906 L 568.746094 1673.859375 L 595.984375 1673.859375 L 595.984375 1575.078125 L 567.054688 1575.078125 L 543.488281 1613.320312 L 519.921875 1575.078125 L 490.992188 1575.078125 Z M 613.480469 1673.859375 L 693.636719 1673.859375 L 693.636719 1650.574219 L 640.578125 1650.574219 L 640.578125 1634.910156 L 687.992188 1634.910156 L 687.992188 1613.320312 L 640.578125 1613.320312 L 640.578125 1598.359375 L 692.929688 1598.359375 L 692.929688 1575.078125 L 613.480469 1575.078125 Z M 707.605469 1673.859375 L 734.699219 1673.859375 L 734.699219 1619.671875 L 776.894531 1673.859375 L 800.886719 1673.859375 L 800.886719 1575.078125 L 773.789062 1575.078125 L 773.789062 1627.289062 L 733.148438 1575.078125 L 707.605469 1575.078125 Z M 815.136719 1626.160156 C 832.777344 1625.597656 844.066406 1618.398438 844.066406 1597.515625 L 844.066406 1575.078125 L 816.265625 1575.078125 L 816.265625 1602.59375 L 826.992188 1602.59375 C 827.414062 1610.214844 822.335938 1614.871094 812.878906 1615.859375 Z M 897.265625 1675.550781 C 921.257812 1675.550781 937.203125 1663.558594 937.203125 1643.378906 L 937.203125 1643.09375 C 937.203125 1624.609375 923.09375 1617.269531 900.371094 1612.332031 C 886.683594 1609.226562 883.296875 1607.253906 883.296875 1602.734375 L 883.296875 1602.453125 C 883.296875 1598.925781 886.542969 1596.105469 893.175781 1596.105469 C 901.925781 1596.105469 911.800781 1599.488281 920.835938 1605.839844 L 934.523438 1586.507812 C 923.796875 1577.898438 910.671875 1573.382812 893.878906 1573.382812 C 870.171875 1573.382812 855.636719 1586.648438 855.636719 1604.992188 L 855.636719 1605.277344 C 855.636719 1625.597656 871.867188 1631.523438 892.894531 1636.320312 C 906.296875 1639.425781 909.542969 1641.683594 909.542969 1645.777344 L 909.542969 1646.058594 C 909.542969 1650.292969 905.59375 1652.832031 898.253906 1652.832031 C 886.824219 1652.832031 875.960938 1648.738281 866.222656 1640.976562 L 850.980469 1659.183594 C 863.117188 1670.046875 879.769531 1675.550781 897.265625 1675.550781 Z M 989.558594 1673.859375 L 1016.929688 1673.859375 L 1016.929688 1638.578125 L 1063.640625 1638.578125 L 1063.640625 1615.859375 L 1016.929688 1615.859375 L 1016.929688 1599.066406 L 1068.578125 1599.066406 L 1068.578125 1575.078125 L 989.558594 1575.078125 Z M 1061.808594 1673.859375 L 1090.601562 1673.859375 L 1097.648438 1656.21875 L 1135.75 1656.21875 L 1142.949219 1673.859375 L 1172.300781 1673.859375 L 1130.25 1574.371094 L 1103.859375 1574.371094 Z M 1105.699219 1634.910156 L 1116.839844 1606.828125 L 1127.851562 1634.910156 Z M 1219.289062 1675.550781 C 1243.28125 1675.550781 1259.230469 1663.558594 1259.230469 1643.378906 L 1259.230469 1643.09375 C 1259.230469 1624.609375 1245.121094 1617.269531 1222.398438 1612.332031 C 1208.710938 1609.226562 1205.320312 1607.253906 1205.320312 1602.734375 L 1205.320312 1602.453125 C 1205.320312 1598.925781 1208.570312 1596.105469 1215.199219 1596.105469 C 1223.949219 1596.105469 1233.828125 1599.488281 1242.859375 1605.839844 L 1256.550781 1586.507812 C 1245.820312 1577.898438 1232.699219 1573.382812 1215.910156 1573.382812 C 1192.199219 1573.382812 1177.671875 1586.648438 1177.671875 1604.992188 L 1177.671875 1605.277344 C 1177.671875 1625.597656 1193.890625 1631.523438 1214.921875 1636.320312 C 1228.328125 1639.425781 1231.570312 1641.683594 1231.570312 1645.777344 L 1231.570312 1646.058594 C 1231.570312 1650.292969 1227.621094 1652.832031 1220.28125 1652.832031 C 1208.851562 1652.832031 1197.988281 1648.738281 1188.25 1640.976562 L 1173.011719 1659.183594 C 1185.140625 1670.046875 1201.800781 1675.550781 1219.289062 1675.550781 Z M 1272.5 1673.859375 L 1299.871094 1673.859375 L 1299.871094 1636.320312 L 1335.011719 1636.320312 L 1335.011719 1673.859375 L 1362.390625 1673.859375 L 1362.390625 1575.078125 L 1335.011719 1575.078125 L 1335.011719 1612.050781 L 1299.871094 1612.050781 L 1299.871094 1575.078125 L 1272.5 1575.078125 Z M 1380.449219 1673.859375 L 1407.96875 1673.859375 L 1407.96875 1575.078125 L 1380.449219 1575.078125 Z M 1475.699219 1675.835938 C 1506.179688 1675.835938 1529.039062 1652.832031 1529.039062 1624.46875 L 1529.039062 1624.1875 C 1529.039062 1595.820312 1506.46875 1573.101562 1475.980469 1573.101562 C 1445.5 1573.101562 1422.640625 1596.105469 1422.640625 1624.46875 L 1422.640625 1624.75 C 1422.640625 1653.113281 1445.21875 1675.835938 1475.699219 1675.835938 Z M 1475.980469 1651.140625 C 1461.03125 1651.140625 1450.730469 1638.71875 1450.730469 1624.46875 L 1450.730469 1624.1875 C 1450.730469 1609.933594 1460.738281 1597.796875 1475.699219 1597.796875 C 1490.800781 1597.796875 1501.101562 1610.214844 1501.101562 1624.46875 L 1501.101562 1624.75 C 1501.101562 1639.003906 1491.078125 1651.140625 1475.980469 1651.140625 Z M 1543.300781 1673.859375 L 1570.390625 1673.859375 L 1570.390625 1619.671875 L 1612.589844 1673.859375 L 1636.578125 1673.859375 L 1636.578125 1575.078125 L 1609.480469 1575.078125 L 1609.480469 1627.289062 L 1568.839844 1575.078125 L 1543.300781 1575.078125 L 1543.300781 1673.859375 "/>
<path fill-rule="nonzero" fill="rgb(0%, 0%, 0%)" fill-opacity="1" d="M 807.074219 1718.109375 C 807.074219 1715.402344 806.609375 1712.976562 805.683594 1710.824219 C 804.757812 1708.671875 803.433594 1706.816406 801.703125 1705.265625 C 799.976562 1703.714844 797.875 1702.523438 795.394531 1701.699219 C 792.917969 1700.871094 790.152344 1700.460938 787.097656 1700.460938 L 766.367188 1700.460938 L 766.367188 1753.03125 L 775.53125 1753.03125 L 775.53125 1736.132812 L 785.996094 1736.132812 C 788.910156 1736.132812 791.640625 1735.746094 794.207031 1734.96875 C 796.761719 1734.191406 798.988281 1733.054688 800.902344 1731.550781 C 802.804688 1730.050781 804.308594 1728.171875 805.421875 1725.917969 C 806.523438 1723.664062 807.074219 1721.0625 807.074219 1718.109375 Z M 797.6875 1718.296875 C 797.6875 1721.160156 796.671875 1723.464844 794.632812 1725.191406 C 792.605469 1726.933594 789.824219 1727.796875 786.308594 1727.796875 L 775.53125 1727.796875 L 775.53125 1708.796875 L 786.308594 1708.796875 C 789.777344 1708.796875 792.542969 1709.585938 794.59375 1711.171875 C 796.660156 1712.75 797.6875 1715.128906 797.6875 1718.296875 Z M 901.570312 1753.03125 L 887.375 1733.128906 C 889.226562 1732.628906 890.917969 1731.914062 892.445312 1730.988281 C 893.972656 1730.0625 895.285156 1728.9375 896.386719 1727.609375 C 897.488281 1726.28125 898.351562 1724.753906 898.980469 1723.027344 C 899.605469 1721.300781 899.917969 1719.335938 899.917969 1717.132812 C 899.917969 1714.578125 899.464844 1712.261719 898.566406 1710.183594 C 897.664062 1708.105469 896.375 1706.355469 894.699219 1704.925781 C 893.019531 1703.5 890.96875 1702.398438 888.539062 1701.621094 C 886.109375 1700.847656 883.394531 1700.460938 880.390625 1700.460938 L 856.957031 1700.460938 L 856.957031 1753.03125 L 866.121094 1753.03125 L 866.121094 1734.707031 L 877.722656 1734.707031 L 890.679688 1753.03125 Z M 890.527344 1717.621094 C 890.527344 1720.335938 889.554688 1722.503906 887.589844 1724.105469 C 885.636719 1725.71875 882.992188 1726.519531 879.675781 1726.519531 L 866.121094 1726.519531 L 866.121094 1708.796875 L 879.601562 1708.796875 C 883.070312 1708.796875 885.761719 1709.535156 887.664062 1711.023438 C 889.578125 1712.5 890.527344 1714.703125 890.527344 1717.621094 Z M 990.582031 1700.460938 L 951.679688 1700.460938 L 951.679688 1753.03125 L 990.957031 1753.03125 L 990.957031 1744.695312 L 960.839844 1744.695312 L 960.839844 1730.648438 L 987.203125 1730.648438 L 987.203125 1722.3125 L 960.839844 1722.3125 L 960.839844 1708.796875 L 990.582031 1708.796875 Z M 1084.929688 1715.328125 L 1084.929688 1753.03125 L 1094.089844 1753.03125 L 1094.089844 1700.460938 L 1084.25 1700.460938 L 1068.25 1725.316406 L 1052.261719 1700.460938 L 1042.421875 1700.460938 L 1042.421875 1753.03125 L 1051.578125 1753.03125 L 1051.578125 1715.480469 L 1068.03125 1740.113281 L 1068.328125 1740.113281 Z M 1148.550781 1700.460938 L 1148.550781 1753.03125 L 1157.71875 1753.03125 L 1157.71875 1700.460938 Z M 1256.421875 1700.460938 L 1247.261719 1700.460938 L 1247.261719 1730.726562 C 1247.261719 1735.582031 1246.070312 1739.238281 1243.699219 1741.691406 C 1241.328125 1744.144531 1238.089844 1745.371094 1233.960938 1745.371094 C 1229.78125 1745.371094 1226.511719 1744.09375 1224.148438 1741.539062 C 1221.78125 1738.988281 1220.589844 1735.257812 1220.589844 1730.351562 L 1220.589844 1700.460938 L 1211.429688 1700.460938 L 1211.429688 1730.726562 C 1211.429688 1734.53125 1211.960938 1737.871094 1213.011719 1740.753906 C 1214.058594 1743.628906 1215.558594 1746.046875 1217.511719 1748 C 1219.46875 1749.953125 1221.820312 1751.414062 1224.570312 1752.394531 C 1227.328125 1753.367188 1230.410156 1753.855469 1233.808594 1753.855469 C 1237.269531 1753.855469 1240.378906 1753.367188 1243.160156 1752.394531 C 1245.941406 1751.414062 1248.308594 1749.9375 1250.261719 1747.960938 C 1252.210938 1745.984375 1253.730469 1743.519531 1254.800781 1740.5625 C 1255.878906 1737.609375 1256.421875 1734.179688 1256.421875 1730.273438 Z M 1352.039062 1715.328125 L 1352.039062 1753.03125 L 1361.199219 1753.03125 L 1361.199219 1700.460938 L 1351.359375 1700.460938 L 1335.371094 1725.316406 L 1319.371094 1700.460938 L 1309.53125 1700.460938 L 1309.53125 1753.03125 L 1318.691406 1753.03125 L 1318.691406 1715.480469 L 1335.140625 1740.113281 L 1335.441406 1740.113281 L 1352.039062 1715.328125 "/>
</svg>
